<?xml version="1.0" encoding="UTF-8"?>
<svg xmlns="http://www.w3.org/2000/svg" xmlns:xlink="http://www.w3.org/1999/xlink" width="32px" height="32px" viewBox="0 0 32 32" version="1.1">
<g id="surface1">
<path style="fill-rule:nonzero;fill:rgb(100%,100%,100%);fill-opacity:1;stroke-width:1;stroke-linecap:butt;stroke-linejoin:miter;stroke:rgb(100%,100%,100%);stroke-opacity:1;stroke-miterlimit:4;" d="M 50.000488 12.498535 L 1.999512 12.498535 C 0.89502 12.498535 0 11.603516 0 10.499023 C 0 9.394531 0.89502 8.499512 1.999512 8.499512 L 50.000488 8.499512 C 51.10498 8.499512 52 9.394531 52 10.499023 C 52 11.603516 51.10498 12.498535 50.000488 12.498535 Z M 50.000488 12.498535 " transform="matrix(0.615385,0,0,0.615385,0,0)"/>
<path style="fill-rule:nonzero;fill:rgb(100%,100%,100%);fill-opacity:1;stroke-width:1;stroke-linecap:butt;stroke-linejoin:miter;stroke:rgb(100%,100%,100%);stroke-opacity:1;stroke-miterlimit:4;" d="M 50.000488 27.999512 L 1.999512 27.999512 C 0.89502 27.999512 0 27.104492 0 26 C 0 24.895508 0.89502 24.000488 1.999512 24.000488 L 50.000488 24.000488 C 51.10498 24.000488 52 24.895508 52 26 C 52 27.104492 51.10498 27.999512 50.000488 27.999512 Z M 50.000488 27.999512 " transform="matrix(0.615385,0,0,0.615385,0,0)"/>
<path style="fill-rule:nonzero;fill:rgb(100%,100%,100%);fill-opacity:1;stroke-width:1;stroke-linecap:butt;stroke-linejoin:miter;stroke:rgb(100%,100%,100%);stroke-opacity:1;stroke-miterlimit:4;" d="M 50.000488 43.500488 L 1.999512 43.500488 C 0.89502 43.500488 0 42.605469 0 41.500977 C 0 40.396484 0.89502 39.501465 1.999512 39.501465 L 50.000488 39.501465 C 51.10498 39.501465 52 40.396484 52 41.500977 C 52 42.605469 51.10498 43.500488 50.000488 43.500488 Z M 50.000488 43.500488 " transform="matrix(0.615385,0,0,0.615385,0,0)"/>
</g>
</svg>
